<?xml version="1.0" encoding="UTF-8"?>
<svg width="85px" height="85px" viewBox="0 0 85 85" version="1.1" xmlns="http://www.w3.org/2000/svg" xmlns:xlink="http://www.w3.org/1999/xlink">
    <!-- Generator: Sketch 49 (51002) - http://www.bohemiancoding.com/sketch -->
    <title>Page 1</title>
    <desc>Created with Sketch.</desc>
    <defs></defs>
    <g id="Design" stroke="none" stroke-width="1" fill="none" fill-rule="evenodd">
        <g id="GDPR_webpage_pop-up-banner" transform="translate(-306.000000, -148.000000)" fill="#FBCE20">
            <g id="Page-1" transform="translate(306.000000, 148.000000)">
                <polygon id="Fill-1" points="11.0001627 18 12.4163886 22.2016656 17 22.2016656 13.2919684 24.7983344 14.7085198 29 11.0001627 26.4030174 7.29180568 29 8.70835707 24.7983344 5 22.2016656 9.58361136 22.2016656"></polygon>
                <polygon id="Fill-2" points="24.0001627 5 25.4163886 9.20166557 30 9.20166557 26.2919684 11.7983344 27.7085198 16 24.0001627 13.4030174 20.2918057 16 21.7083571 11.7983344 18 9.20166557 22.5836114 9.20166557"></polygon>
                <polygon id="Fill-3" points="43 0 41.5837357 4.20197929 37 4.20197929 40.7081322 6.79864815 39.2915423 11 43 8.40333115 46.7084577 11 45.2918678 6.79864815 49 4.20197929 44.4162643 4.20197929"></polygon>
                <polygon id="Fill-4" points="61.0001627 5 62.4163886 9.20166557 67 9.20166557 63.2916429 11.7983344 64.7085198 16 61.0001627 13.4030174 57.2914802 16 58.7083571 11.7983344 55 9.20166557 59.5836114 9.20166557"></polygon>
                <polygon id="Fill-5" points="74.0001627 19 75.4163886 23.2016656 80 23.2016656 76.2916429 25.7983344 77.7085198 30 74.0001627 27.4030174 70.2914802 30 71.7083571 25.7983344 68 23.2016656 72.5836114 23.2016656"></polygon>
                <polygon id="Fill-6" points="77.5837357 41.2019053 73 41.2019053 76.7084577 43.7987222 75.2915423 48 79.0003255 45.403183 82.7087832 48 81.2915423 43.7987222 85 41.2019053 80.4162643 41.2019053 79.0003255 37"></polygon>
                <polygon id="Fill-7" points="74.0001627 56 75.4163886 60.2017854 80 60.2017854 76.2916429 62.7985283 77.7085198 67 74.0001627 64.4029434 70.2914802 67 71.7083571 62.7985283 68 60.2017854 72.5836114 60.2017854"></polygon>
                <polygon id="Fill-8" points="61.0001627 69 62.4163886 73.2017854 67 73.2017854 63.2916429 75.7985283 64.7085198 80 61.0001627 77.4029434 57.2914802 80 58.7083571 75.7985283 55 73.2017854 59.5836114 73.2017854"></polygon>
                <polygon id="Fill-9" points="41.5835345 78.2015915 37 78.2015915 40.7082327 80.7984085 39.291279 85 43.0001628 82.403183 46.708721 85 45.2917673 80.7984085 49 78.2015915 44.41614 78.2015915 43.0001628 74"></polygon>
                <polygon id="Fill-10" points="24.0001627 69 25.4163886 73.2017854 30 73.2017854 26.2916429 75.7985283 27.7085198 80 24.0001627 77.4029434 20.2914802 80 21.7083571 75.7985283 18 73.2017854 22.5836114 73.2017854"></polygon>
                <polygon id="Fill-11" points="11.0001627 55 12.4163886 59.2017854 17 59.2017854 13.2916429 61.7985283 14.7085198 66 11.0001627 63.4029434 7.29148019 66 8.70835707 61.7985283 5 59.2017854 9.58361136 59.2017854"></polygon>
                <polygon id="Fill-12" points="4.5837228 41.2017341 0 41.2017341 3.70829976 43.7985766 2.29137792 48 6.00032232 45.4028468 9.70862208 48 8.29170024 43.7985766 12 41.2017341 7.4162772 41.2017341 6.00032232 37"></polygon>
            </g>
        </g>
    </g>
</svg>